PathFileType	4	(x/y/z)	S08_M20_T09
DataRate	CameraRate	NumFrames	NumMarkers	Units	OrigDataRate	OrigDataStartFrame	OrigNumFrames
240	240	4	51	mm	240	447	510
Frame#	Time	Sternum			R.Acromium			L.Acromium			Top.Head			R.ASIS			L.ASIS			R.PSIS			L.PSIS			R.Great.Tro			L.Great.Tro			R.Iliac.Crest			L.Iliac.Crest			V.Sacral			R.Thigh.Upper.Post			R.Thigh.Lower.Ant			R.Thigh.Lower.Post			R.Thigh.Upper.Ant			R.Knee.Lat			R.Knee.Med			R.Shank.Upper.Post			R.Shank.Lower.Ant			R.Shank.Lower.Post			R.Shank.Upper.Ant			R.Ankle.Lat			R.Ankle.Med			R.Heel.Upper			R.Heel.Med			R.Heel.Lat			R.Toe.Lat			R.Toe.Med			R.Toe.Tip			L.Thigh.Upper.Post			L.Thigh.Lower.Ant			L.Thigh.Lower.Post			L.Thigh.Upper.Ant			L.Knee.Lat			L.Knee.Med			L.Shank.Upper.Post			L.Shank.Lower.Ant			L.Shank.Lower.Post			L.Shank.Upper.Ant			L.Ankle.Lat			L.Ankle.Med			L.Heel.Upper			L.Heel.Med			L.Heel.Lat			L.Toe.Lat			L.Toe.Med			L.Toe.Tip			Cervical.Spine			Back			
		X1	Y1	Z1	X2	Y2	Z2	X3	Y3	Z3	X4	Y4	Z4	X5	Y5	Z5	X6	Y6	Z6	X7	Y7	Z7	X8	Y8	Z8	X9	Y9	Z9	X10	Y10	Z10	X11	Y11	Z11	X12	Y12	Z12	X13	Y13	Z13	X14	Y14	Z14	X15	Y15	Z15	X16	Y16	Z16	X17	Y17	Z17	X18	Y18	Z18	X19	Y19	Z19	X20	Y20	Z20	X21	Y21	Z21	X22	Y22	Z22	X23	Y23	Z23	X24	Y24	Z24	X25	Y25	Z25	X26	Y26	Z26	X27	Y27	Z27	X28	Y28	Z28	X29	Y29	Z29	X30	Y30	Z30	X31	Y31	Z31	X32	Y32	Z32	X33	Y33	Z33	X34	Y34	Z34	X35	Y35	Z35	X36	Y36	Z36	X37	Y37	Z37	X38	Y38	Z38	X39	Y39	Z39	X40	Y40	Z40	X41	Y41	Z41	X42	Y42	Z42	X43	Y43	Z43	X44	Y44	Z44	X45	Y45	Z45	X46	Y46	Z46	X47	Y47	Z47	X48	Y48	Z48	X49	Y49	Z49	X50	Y50	Z50	X51	Y51	Z51	

447	1.8583	745.87	1210.2	310.67	628.6	1441.2	489.74	624.59	1479.8	156.43	658.02	1765	340.92	742.25	999.58	416.67	728.53	1000.2	183.28	537.44	1021.7	357.6	536.02	1030.3	264.68	688.8	887.32	492.67	620.84	903.93	122.6	647.44	1063.6	471.27	631.02	1083.3	159.64	519.36	985.93	308.64	748.42	690.75	479.6	857.59	633.5	442.38	790.39	612.48	458.34	820.38	718.91	464.19	869.87	538.43	436.91	838.51	525.91	311.61	881.66	346.94	446.9	962.49	313.26	423.34	911.45	275.71	439.02	932.71	384.95	433.13	982.35	118.53	404.65	1001.5	148.91	324.51	961.11	61.55	352.23	985.42	46.811	324.26	977.19	42.006	385.82	NaN	NaN	NaN	1141.8	146.08	320.24	1183.9	194.29	369.27	550.29	713.77	138.88	605.45	604.07	169.19	540.46	623.22	162.13	615.77	689.45	143.12	521.9	519.47	187.04	527.37	521.93	312.55	409.77	359.73	196.1	451.84	258.84	221.95	387.66	291.2	216.84	468.55	331.04	202.29	364.98	116.44	242.77	389.75	121.44	327.56	307.06	95.357	294.91	316.71	60.642	325.46	310.02	66.923	261.48	481.92	37.927	224.27	504.5	39.056	338.94	569	46.727	288.67	560.98	1504.3	315.76	512.32	1220.1	316.68
448	1.8625	751.13	1209.5	310.84	633.75	1440.4	490.01	629.83	1479.1	156.73	663.03	1764.3	341.25	747.76	998.92	416.69	733.5	999.47	183.28	542.83	1021	358.07	541.22	1029.6	265.18	694.55	886.62	492.82	625.42	903.43	122.82	653.03	1062.9	471.53	635.98	1082.6	159.87	524.61	985.27	309.2	753.63	689.93	479.73	862.6	632.45	442.16	795.42	611.56	458.35	825.62	717.93	464.06	874.82	537.54	436.79	843.09	524.92	311.52	888.43	346.08	446.42	969.61	313.32	422.74	918.95	275.21	438.42	939.07	384.69	432.76	991.74	118.77	403.57	1010.5	149.58	323.48	971.18	61.566	350.99	995.68	47.21	322.98	987.52	42.136	384.51	NaN	NaN	NaN	1150.9	148.46	319.16	1192.4	197.06	368.36	553.92	713.63	139.17	608.74	603.73	169.09	543.81	623.19	162.19	619.42	689.05	143.08	524.82	519.48	187.08	530.54	521.8	312.6	411.81	360.39	196.09	453.28	259.23	221.84	389.28	291.99	216.78	470.41	331.34	202.23	365.59	117.26	242.64	390.43	122.16	327.42	307.59	96.474	294.78	317.03	61.766	325.37	310.38	67.984	261.38	482.04	37.91	224.25	504.64	39.148	338.91	569.17	46.475	288.66	566.17	1503.6	316.01	517.59	1219.4	316.88
449	1.8667	756.41	1208.8	311.02	638.91	1439.6	490.29	635.07	1478.4	157.04	668.04	1763.5	341.59	753.3	998.26	416.7	738.49	998.74	183.28	548.24	1020.3	358.55	546.46	1028.9	265.7	700.34	885.92	492.97	630.02	902.92	123.05	658.65	1062.2	471.79	640.96	1081.9	160.1	529.88	984.61	309.77	758.91	689.14	479.87	867.69	631.45	441.92	800.52	610.67	458.35	830.92	716.99	463.92	879.83	536.68	436.66	847.75	523.98	311.43	895.08	345.23	445.93	976.57	313.32	422.16	926.26	274.7	437.81	945.35	384.38	432.38	1000.7	118.95	402.49	1019.2	150.18	322.46	980.83	61.555	349.75	1005.5	47.557	321.72	997.41	42.223	383.21	NaN	NaN	NaN	1159.6	150.62	318.13	1200.5	199.57	367.49	557.59	713.48	139.52	612.11	603.38	169	547.23	623.15	162.27	623.13	688.65	143.04	527.84	519.48	187.13	533.81	521.65	312.65	413.92	361.07	196.09	454.77	259.63	221.75	390.96	292.79	216.73	472.35	331.65	202.19	366.23	118.12	242.51	391.13	122.9	327.28	308.15	97.643	294.64	317.37	62.942	325.28	310.77	69.098	261.28	482.16	37.899	224.23	504.78	39.247	338.87	569.34	46.223	288.65	571.37	1502.8	316.27	522.88	1218.6	317.09
450	1.8708	761.71	1208.1	311.2	644.1	1438.9	490.58	640.34	1477.7	157.35	673.05	1762.8	341.94	758.86	997.61	416.71	743.51	998.01	183.28	553.69	1019.6	359.04	551.73	1028.2	266.22	706.17	885.25	493.14	634.66	902.41	123.28	664.3	1061.5	472.06	645.97	1081.2	160.33	535.17	983.96	310.35	764.26	688.38	480	872.86	630.5	441.68	805.71	609.83	458.35	836.28	716.1	463.77	884.9	535.84	436.53	852.49	523.07	311.34	901.61	344.39	445.43	983.36	313.25	421.59	933.37	274.17	437.2	951.55	384.03	432.02	1009.4	119.06	401.43	1027.5	150.67	321.46	990.04	61.502	348.53	1014.9	47.835	320.48	1006.8	42.255	381.93	NaN	NaN	NaN	1167.9	152.53	317.13	1208.4	201.78	366.67	561.29	713.3	139.94	615.56	603.03	168.92	550.73	623.11	162.37	626.9	688.24	143.02	530.95	519.47	187.2	537.18	521.49	312.72	416.13	361.76	196.09	456.33	260.04	221.66	392.72	293.62	216.67	474.37	331.96	202.16	366.91	119.02	242.38	391.87	123.67	327.14	308.74	98.866	294.5	317.73	64.169	325.18	311.19	70.266	261.16	482.29	37.896	224.21	504.93	39.354	338.84	569.52	45.972	288.64	576.59	1502.1	316.53	528.21	1217.8	317.31
